<svg width="50" height="47" viewBox="0 0 50 47" fill="none" xmlns="http://www.w3.org/2000/svg">
<path d="M49.1379 21.7403H38.1121V19.611C38.1115 19.3 37.9435 19.0134 37.6724 18.861L25.8621 12.2231V8.84379H28.1983V10.1283C28.1983 10.6043 28.5843 10.9903 29.0603 10.9903H36.1034C36.5795 10.9901 36.9653 10.604 36.9652 10.1279C36.9652 10.0282 36.9477 9.92913 36.9138 9.83517L36.2069 7.82655L36.9224 5.86103C37.0843 5.41329 36.8526 4.91911 36.4048 4.75726C36.311 4.72331 36.212 4.70596 36.1121 4.70586H32.9052V3.45585C32.9052 2.97978 32.5192 2.59379 32.0431 2.59379H25.8621V1.54206C25.8621 1.06598 25.4761 0.679993 25 0.679993C24.5239 0.679993 24.1379 1.06598 24.1379 1.54206V12.2231L12.3276 18.8524C12.0565 19.0048 11.8885 19.2914 11.8879 19.6024V21.7317H0.862069C0.385991 21.7317 0 22.1177 0 22.5938V45.1455C0 45.6216 0.385991 46.0076 0.862069 46.0076H49.1379C49.614 46.0076 50 45.6216 50 45.1455V22.6024C50 22.1263 49.614 21.7403 49.1379 21.7403ZM32.9052 7.98172L32.8707 7.94724V6.46448H34.8362L34.4828 7.56792C34.4122 7.75995 34.4122 7.97073 34.4828 8.16275L34.8879 9.2662H29.9224V8.84379H32.0431C32.5192 8.84379 32.9052 8.4578 32.9052 7.98172ZM25.8621 4.31792H31.181V5.60241V7.11965H25.8621V4.31792ZM11.8879 44.2834H1.72414V23.4645H11.8879V44.2834ZM24.1379 44.2834H19.6121V34.4386H24.1379V44.2834ZM30.3879 44.2834H25.8621V34.4386H30.3879V44.2834ZM36.4224 44.2834H32.1121V33.5765C32.1121 33.1005 31.7261 32.7145 31.25 32.7145H18.75C18.2739 32.7145 17.8879 33.1005 17.8879 33.5765V44.2834H13.5776V20.1455L25 13.7145L36.3879 20.111L36.4224 22.5938V44.2834ZM48.2759 44.2834H38.1121V23.4645H48.2759V44.2834Z" fill="white"/>
<path d="M24.9999 16.3523C23.0036 16.357 21.3878 17.9766 21.3878 19.973C21.3926 21.9679 23.0136 23.5812 25.0085 23.5764C27.0035 23.5717 28.6167 21.9507 28.612 19.9557C28.6072 17.9643 26.9914 16.3523 24.9999 16.3523ZM24.9999 21.8523C23.9572 21.8476 23.1159 20.9984 23.1206 19.9557C23.1253 18.9199 23.9639 18.0812 24.9999 18.0764C26.044 18.0812 26.8878 18.9289 26.8878 19.973H26.8965C26.8917 21.0157 26.0426 21.857 24.9999 21.8523Z" fill="white"/>
<path d="M5.52587 25.3611H3.80173V28.8094H5.52587V25.3611Z" fill="white"/>
<path d="M9.77574 25.3611H8.05161V28.8094H9.77574V25.3611Z" fill="white"/>
<path d="M19.6464 25.3611H16.1981V27.0852H19.6464V25.3611Z" fill="white"/>
<path d="M26.7242 25.3611H23.2759V27.0852H26.7242V25.3611Z" fill="white"/>
<path d="M33.8019 25.3611H30.3536V27.0852H33.8019V25.3611Z" fill="white"/>
<path d="M19.6464 29.3781H16.1981V31.1023H19.6464V29.3781Z" fill="white"/>
<path d="M26.7242 29.3781H23.2759V31.1023H26.7242V29.3781Z" fill="white"/>
<path d="M33.8019 29.3781H30.3536V31.1023H33.8019V29.3781Z" fill="white"/>
<path d="M5.52587 32.1451H3.80173V35.5934H5.52587V32.1451Z" fill="white"/>
<path d="M9.77574 32.1451H8.05161V35.5934H9.77574V32.1451Z" fill="white"/>
<path d="M5.52587 38.9384H3.80173V42.3866H5.52587V38.9384Z" fill="white"/>
<path d="M9.77574 38.9384H8.05161V42.3866H9.77574V38.9384Z" fill="white"/>
<path d="M41.9484 25.3611H40.2243V28.8094H41.9484V25.3611Z" fill="white"/>
<path d="M46.1982 25.3611H44.4741V28.8094H46.1982V25.3611Z" fill="white"/>
<path d="M41.9484 32.1451H40.2243V35.5934H41.9484V32.1451Z" fill="white"/>
<path d="M46.1982 32.1451H44.4741V35.5934H46.1982V32.1451Z" fill="white"/>
<path d="M41.9484 38.9384H40.2243V42.3866H41.9484V38.9384Z" fill="white"/>
<path d="M46.1982 38.9384H44.4741V42.3866H46.1982V38.9384Z" fill="white"/>
</svg>
